# xmcd CD database file
#
# Track frame offsets:
#	187
#	15222
#	28500
#	43050
#	57340
#	71897
#	92685
#	105750
#	124860
#	140087
#
# Disc length: 2139 seconds
#
# Revision: 0
# Processed by: cddbd v1.5PL3 Copyright (c) Steve Scherf et al.
# Submitted via: CDex 1.51
#
DISCID=8008590a
DTITLE=LAZY - Dream A Dream
DYEAR=1900
DGENRE=Hard Rock
TTITLE0=ロックン・ロールさえやってりゃ
TTITLE1=Stop The Music
TTITLE2=Guiter Man
TTITLE3=フルカウント
TTITLE4=内気な夏
TTITLE5=My Angel
TTITLE6=真昼のメインストリート
TTITLE7=100%の片思い
TTITLE8=青春の1ページ
TTITLE9=Sweet Good-Bye
EXTD=
EXTT0=
EXTT1=
EXTT2=
EXTT3=
EXTT4=
EXTT5=
EXTT6=
EXTT7=
EXTT8=
EXTT9=
PLAYORDER=
